<svg xmlns="http://www.w3.org/2000/svg" viewBox="0 0 1000 680" font-family="Inter, sans-serif">
  <rect width="1000" height="680" fill="#f5f0e8"/>
  <g fill="#fff" stroke="#2D2D2D" stroke-width="5" stroke-linejoin="miter">
    <rect x="60" y="60" width="880" height="560"/>
  </g>
  <g fill="#efe6d6" stroke="#2D2D2D" stroke-width="3">
    <rect x="60" y="60" width="340" height="280"/>
    <rect x="400" y="60" width="260" height="180"/>
    <rect x="660" y="60" width="280" height="180"/>
    <rect x="400" y="240" width="540" height="220"/>
    <rect x="60" y="340" width="340" height="280"/>
    <rect x="400" y="460" width="540" height="160"/>
  </g>
  <g fill="#C67C4E" opacity="0.25">
    <rect x="100" y="120" width="200" height="90" rx="6"/>
    <rect x="440" y="100" width="180" height="70" rx="6"/>
    <rect x="700" y="100" width="200" height="90" rx="6"/>
    <rect x="450" y="290" width="200" height="130" rx="8"/>
    <rect x="110" y="400" width="220" height="160" rx="8"/>
    <rect x="450" y="500" width="300" height="90" rx="8"/>
  </g>
  <g fill="#7A7A7A" font-size="18" font-weight="600" letter-spacing="2">
    <text x="230" y="195" text-anchor="middle">HABITACIÓN 1</text>
    <text x="530" y="140" text-anchor="middle">BAÑO</text>
    <text x="800" y="150" text-anchor="middle">COCINA</text>
    <text x="670" y="360" text-anchor="middle">SALA</text>
    <text x="230" y="485" text-anchor="middle">HABITACIÓN 2</text>
    <text x="670" y="550" text-anchor="middle">COMEDOR</text>
  </g>
  <g fill="#2D2D2D" font-size="14" opacity="0.4">
    <text x="80" y="650">NORTE ↑</text>
    <text x="860" y="650">ESCALA 1:100</text>
  </g>
</svg>
