<svg xmlns="http://www.w3.org/2000/svg" viewBox="0 0 1000 680" font-family="Inter, sans-serif">
  <rect width="1000" height="680" fill="#f5f0e8"/>
  <rect x="60" y="60" width="880" height="560" fill="#fff" stroke="#2D2D2D" stroke-width="5"/>
  <g fill="#efe6d6" stroke="#2D2D2D" stroke-width="3">
    <rect x="60" y="60" width="300" height="220"/>
    <rect x="360" y="60" width="320" height="220"/>
    <rect x="680" y="60" width="260" height="220"/>
    <rect x="60" y="280" width="300" height="180"/>
    <rect x="360" y="280" width="320" height="180"/>
    <rect x="680" y="280" width="260" height="180"/>
    <rect x="60" y="460" width="880" height="160" fill="#cfe4d8"/>
  </g>
  <g fill="#C67C4E" opacity="0.25">
    <rect x="95" y="110" width="230" height="130" rx="8"/>
    <rect x="400" y="110" width="240" height="130" rx="8"/>
    <rect x="710" y="110" width="200" height="130" rx="8"/>
    <rect x="95" y="320" width="230" height="100" rx="8"/>
    <rect x="400" y="320" width="240" height="100" rx="8"/>
    <rect x="710" y="320" width="200" height="100" rx="8"/>
  </g>
  <g fill="#3d8a6f" opacity="0.35">
    <ellipse cx="500" cy="540" rx="280" ry="60"/>
  </g>
  <g fill="#7A7A7A" font-size="18" font-weight="600" letter-spacing="2">
    <text x="210" y="180" text-anchor="middle">HABITACIÓN 1</text>
    <text x="520" y="180" text-anchor="middle">HABITACIÓN 2</text>
    <text x="810" y="180" text-anchor="middle">HABITACIÓN 3</text>
    <text x="210" y="380" text-anchor="middle">SALA</text>
    <text x="520" y="380" text-anchor="middle">COCINA</text>
    <text x="810" y="380" text-anchor="middle">BAÑO</text>
    <text x="500" y="555" text-anchor="middle" fill="#1f5a47">PISCINA</text>
  </g>
  <g fill="#2D2D2D" font-size="14" opacity="0.4">
    <text x="80" y="650">NIVEL I — CASA DE PLAYA</text>
    <text x="860" y="650">ESCALA 1:100</text>
  </g>
</svg>
