<svg xmlns="http://www.w3.org/2000/svg" viewBox="0 0 1000 680" font-family="Inter, sans-serif">
  <rect width="1000" height="680" fill="#f5f0e8"/>
  <rect x="60" y="60" width="880" height="560" fill="#fff" stroke="#2D2D2D" stroke-width="5"/>
  <g fill="#efe6d6" stroke="#2D2D2D" stroke-width="3">
    <rect x="60" y="60" width="280" height="220"/>
    <rect x="340" y="60" width="320" height="220"/>
    <rect x="660" y="60" width="280" height="220"/>
    <rect x="60" y="280" width="400" height="180"/>
    <rect x="460" y="280" width="480" height="180"/>
    <rect x="60" y="460" width="520" height="160"/>
    <rect x="580" y="460" width="360" height="160"/>
  </g>
  <g fill="#C67C4E" opacity="0.25">
    <rect x="90" y="110" width="200" height="130" rx="6"/>
    <rect x="380" y="100" width="240" height="140" rx="6"/>
    <rect x="700" y="110" width="200" height="130" rx="6"/>
    <rect x="100" y="320" width="320" height="100" rx="8"/>
    <rect x="500" y="320" width="400" height="100" rx="8"/>
    <rect x="100" y="490" width="440" height="100" rx="8"/>
    <rect x="620" y="490" width="280" height="100" rx="8"/>
  </g>
  <g fill="#7A7A7A" font-size="18" font-weight="600" letter-spacing="2">
    <text x="200" y="185" text-anchor="middle">HABITACIÓN 1</text>
    <text x="500" y="180" text-anchor="middle">COCINA</text>
    <text x="800" y="185" text-anchor="middle">HABITACIÓN 2</text>
    <text x="260" y="380" text-anchor="middle">SALA</text>
    <text x="700" y="380" text-anchor="middle">COMEDOR</text>
    <text x="320" y="550" text-anchor="middle">JARDÍN</text>
    <text x="760" y="550" text-anchor="middle">BAÑO</text>
  </g>
  <g fill="#2D2D2D" font-size="14" opacity="0.4">
    <text x="80" y="650">NIVEL I</text>
    <text x="860" y="650">ESCALA 1:100</text>
  </g>
</svg>
