<svg xmlns="http://www.w3.org/2000/svg" viewBox="0 0 1000 680" font-family="Inter, sans-serif">
  <rect width="1000" height="680" fill="#f5f0e8"/>
  <rect x="60" y="60" width="880" height="560" fill="#fff" stroke="#2D2D2D" stroke-width="5"/>
  <g fill="#efe6d6" stroke="#2D2D2D" stroke-width="3">
    <rect x="60" y="60" width="340" height="260"/>
    <rect x="400" y="60" width="280" height="260"/>
    <rect x="680" y="60" width="260" height="260"/>
    <rect x="60" y="320" width="260" height="200"/>
    <rect x="320" y="320" width="380" height="200"/>
    <rect x="700" y="320" width="240" height="200"/>
    <rect x="60" y="520" width="880" height="100"/>
  </g>
  <g fill="#C67C4E" opacity="0.25">
    <rect x="100" y="120" width="260" height="150" rx="8"/>
    <rect x="430" y="110" width="220" height="180" rx="10"/>
    <rect x="710" y="110" width="200" height="180" rx="8"/>
    <rect x="90" y="360" width="200" height="130" rx="8"/>
    <rect x="360" y="360" width="300" height="130" rx="8"/>
    <rect x="730" y="360" width="180" height="130" rx="8"/>
    <rect x="150" y="540" width="700" height="60" rx="30"/>
  </g>
  <g fill="#7A7A7A" font-size="18" font-weight="600" letter-spacing="2">
    <text x="230" y="200" text-anchor="middle">SALA</text>
    <text x="540" y="205" text-anchor="middle">HABITACIÓN 1</text>
    <text x="810" y="205" text-anchor="middle">COCINA</text>
    <text x="190" y="425" text-anchor="middle">BAÑO 1</text>
    <text x="510" y="425" text-anchor="middle">HABITACIÓN 2</text>
    <text x="820" y="425" text-anchor="middle">BAÑO 2</text>
    <text x="500" y="580" text-anchor="middle">TERRAZA / JACUZZI</text>
  </g>
  <g fill="#2D2D2D" font-size="14" opacity="0.4">
    <text x="80" y="650">NIVEL 18 — PENTHOUSE</text>
    <text x="860" y="650">ESCALA 1:100</text>
  </g>
</svg>
