<svg xmlns="http://www.w3.org/2000/svg" viewBox="0 0 1000 680" font-family="Inter, sans-serif">
  <rect width="1000" height="680" fill="#f5f0e8"/>
  <rect x="120" y="80" width="760" height="520" fill="#fff" stroke="#2D2D2D" stroke-width="5"/>
  <g fill="#efe6d6" stroke="#2D2D2D" stroke-width="3">
    <rect x="120" y="80" width="440" height="240"/>
    <rect x="560" y="80" width="320" height="240"/>
    <rect x="120" y="320" width="280" height="280"/>
    <rect x="400" y="320" width="280" height="280"/>
    <rect x="680" y="320" width="200" height="280"/>
  </g>
  <g fill="#C67C4E" opacity="0.25">
    <rect x="160" y="130" width="360" height="160" rx="8"/>
    <rect x="600" y="130" width="240" height="160" rx="8"/>
    <rect x="160" y="370" width="200" height="190" rx="8"/>
    <rect x="440" y="370" width="200" height="190" rx="8"/>
    <rect x="710" y="370" width="140" height="190" rx="6"/>
  </g>
  <g fill="#7A7A7A" font-size="20" font-weight="600" letter-spacing="2">
    <text x="340" y="215" text-anchor="middle">SALA — COMEDOR</text>
    <text x="720" y="215" text-anchor="middle">COCINA</text>
    <text x="260" y="475" text-anchor="middle">HABITACIÓN</text>
    <text x="540" y="475" text-anchor="middle">BAÑO</text>
    <text x="780" y="475" text-anchor="middle">CLOSET</text>
  </g>
  <g fill="#2D2D2D" font-size="14" opacity="0.4">
    <text x="130" y="645">NIVEL I</text>
    <text x="800" y="645">ESCALA 1:100</text>
  </g>
</svg>
